<svg xmlns="http://www.w3.org/2000/svg" viewBox="0 0 960 593">
  <image href="https://upload.wikimedia.org/wikipedia/commons/thumb/1/1a/Blank_US_Map_%28states_only%29.svg/960px-Blank_US_Map_%28states_only%29.svg.png" width="960" height="593"/>
  <rect width="960" height="593" fill="rgba(4, 10, 32, 0.28)"/>
  <path d="M485 122 L524 120 L554 122 L573 136 L594 140 L606 159 L628 163 L638 177 L634 200 L639 226 L620 235 L621 256 L596 265 L582 293 L563 298 L551 283 L528 286 L501 281 L480 288 L459 280 L443 281 L427 266 L429 242 L421 221 L423 189 L432 174 L447 167 L460 147 Z" fill="rgba(116, 209, 134, 0.42)" stroke="#5fd57b" stroke-width="5" stroke-linejoin="round"/>
</svg>
